<svg width="80" height="108" viewBox="0 0 80 108" fill="none" xmlns="http://www.w3.org/2000/svg">
<circle cx="72.6078" cy="37.8226" r="5.45295" stroke="white" stroke-width="3.87707"/>
<path d="M64.3548 8.50164C92.0782 24.8404 39.6697 36.7514 44.4345 57.2979" stroke="white" stroke-width="5.28691"/>
<path d="M42.3497 11.4406C42.3497 11.4406 52.7721 73.9736 24.1857 20.9694" stroke="white" stroke-width="5.28691"/>
<path d="M2.00068 17.2472C20.5862 6.31137 77.785 12.3339 62.7465 31.5404" stroke="white" stroke-width="5.28691"/>
<path d="M25.0343 74.8622C25.4457 75.8222 25.6514 76.8337 25.6514 77.8965V88.5165C25.6514 89.5965 25.4457 90.6165 25.0343 91.5765C24.64 92.5194 24.0743 93.3594 23.3371 94.0965C22.6 94.8337 21.7429 95.408 20.7657 95.8194C19.7886 96.2308 18.7686 96.4365 17.7057 96.4365H9.78571V91.268H17.7057C18.46 91.268 19.1029 91.0194 19.6343 90.5222C20.1486 90.0251 20.4057 89.4165 20.4057 88.6965V77.7165C20.4057 76.9794 20.1486 76.3708 19.6343 75.8908C19.1029 75.3765 18.46 75.1194 17.7057 75.1194H15.0314V85.5594H9.78571V69.9765H17.7057C18.7686 69.9765 19.7886 70.1737 20.7657 70.568C21.7429 70.9965 22.6 71.5708 23.3371 72.2908C24.0743 73.028 24.64 73.8851 25.0343 74.8622ZM45.7843 72.7794C47.8586 74.8537 48.8957 77.2365 48.8957 79.928C48.8957 82.6022 47.8586 84.9422 45.7843 86.948C43.95 88.7308 41.4729 89.6222 38.3529 89.6222H35.2415V96.4365H29.9443V84.7622H38.5329C39.2186 84.7622 39.8272 84.6937 40.3586 84.5565C40.9757 84.4022 41.5157 84.0937 41.9786 83.6308C42.99 82.6194 43.4957 81.3851 43.4957 79.928C43.4957 78.368 42.99 77.108 41.9786 76.148C41.5157 75.7194 40.9757 75.4194 40.3586 75.248C39.7757 75.0765 39.0815 74.9822 38.2757 74.9651H29.9443V69.9765H38.3015C41.4557 69.9937 43.95 70.928 45.7843 72.7794ZM70.8116 74.7851C71.2059 75.7451 71.403 76.748 71.403 77.7937V96.4365H66.2344V89.9051H62.3259V84.7622H66.2344V77.6137C66.2344 76.8765 65.9859 76.268 65.4887 75.788C64.9916 75.308 64.3744 75.068 63.6373 75.068H60.603C60.123 75.068 59.6344 75.308 59.1373 75.788C58.6573 76.268 58.4173 76.8765 58.4173 77.6137V96.4365H53.223V77.7937C53.223 76.748 53.4287 75.7451 53.8402 74.7851C54.2687 73.8251 54.843 72.9851 55.563 72.2651C56.2659 71.5451 57.0887 70.9794 58.0316 70.568C58.923 70.1908 59.8744 69.9937 60.8859 69.9765H63.663C64.7087 69.9765 65.703 70.1737 66.6459 70.568C67.6059 70.9794 68.4459 71.5451 69.1659 72.2651C69.8687 72.9851 70.4173 73.8251 70.8116 74.7851Z" fill="white"/>
</svg>
