<svg width="97" height="34" viewBox="0 0 97 34" fill="none" xmlns="http://www.w3.org/2000/svg">
<circle cx="39.364" cy="20.5507" r="2.96283" stroke="white" stroke-width="2.10658"/>
<path d="M34.8797 4.61938C49.943 13.4969 21.4672 19.9687 24.0561 31.1325" stroke="white" stroke-width="2.87261"/>
<path d="M22.9234 6.21615C22.9234 6.21615 28.5864 40.193 13.0541 11.3935" stroke="white" stroke-width="2.87261"/>
<path d="M0.999975 9.37115C11.0983 3.42924 42.1769 6.70154 34.0059 17.1373" stroke="white" stroke-width="2.87261"/>
<path d="M59.6701 3.24115C59.7645 3.46138 59.8117 3.69342 59.8117 3.93725V6.3736C59.8117 6.62137 59.7645 6.85537 59.6701 7.0756C59.5797 7.29191 59.4499 7.48461 59.2808 7.65372C59.1117 7.82283 58.915 7.95458 58.6909 8.04896C58.4667 8.14335 58.2327 8.19054 57.9889 8.19054H56.1719V7.00481H57.9889C58.1619 7.00481 58.3094 6.94779 58.4313 6.83374C58.5493 6.71969 58.6083 6.58007 58.6083 6.4149V3.89595C58.6083 3.72685 58.5493 3.58723 58.4313 3.47711C58.3094 3.35913 58.1619 3.30014 57.9889 3.30014H57.3753V5.6952H56.1719V2.12031H57.9889C58.2327 2.12031 58.4667 2.16553 58.6909 2.25599C58.915 2.35431 59.1117 2.48606 59.2808 2.65123C59.4499 2.82034 59.5797 3.01698 59.6701 3.24115ZM65.0029 3.22345C65.0934 3.44369 65.1386 3.67375 65.1386 3.91365V8.19054H63.9529V6.69216H63.0562V5.51233H63.9529V3.87236C63.9529 3.70325 63.8959 3.56364 63.7818 3.45352C63.6678 3.3434 63.5262 3.28834 63.3571 3.28834H62.661C62.5509 3.28834 62.4388 3.3434 62.3247 3.45352C62.2146 3.56364 62.1595 3.70325 62.1595 3.87236V8.19054H60.9679V3.91365C60.9679 3.67375 61.0151 3.44369 61.1095 3.22345C61.2078 3.00322 61.3396 2.81051 61.5047 2.64533C61.666 2.48016 61.8548 2.35037 62.0711 2.25599C62.2756 2.16947 62.4938 2.12424 62.7259 2.12031H63.363C63.6029 2.12031 63.831 2.16553 64.0473 2.25599C64.2675 2.35037 64.4602 2.48016 64.6254 2.64533C64.7866 2.81051 64.9125 3.00322 65.0029 3.22345ZM69.2494 2.12031H70.3644V8.19054H69.1786C69.1668 8.19054 69.0842 8.0175 68.9309 7.67142C68.7775 7.32533 68.6064 6.93009 68.4176 6.48569C68.2249 6.04128 67.9831 5.473 67.692 4.78083V8.19054H66.6007V2.12031H67.7628C67.7746 2.12031 67.8572 2.29138 68.0106 2.63353C68.16 2.97962 68.3311 3.3729 68.5238 3.81337C68.7126 4.25384 68.9545 4.82016 69.2494 5.51233V2.12031ZM74.3896 6.43849V6.17893H75.593V6.43849C75.593 6.54075 75.5832 6.63906 75.5635 6.73345C75.5439 6.86323 75.5085 6.98908 75.4574 7.111C75.359 7.31943 75.2273 7.50821 75.0621 7.67732C74.893 7.83856 74.7023 7.96441 74.4899 8.05486C74.2815 8.14138 74.0612 8.18661 73.8292 8.19054H73.3101C73.0702 8.19054 72.8401 8.14532 72.6199 8.05486C72.4468 7.98014 72.2915 7.88575 72.1538 7.7717C72.1302 7.75597 72.1106 7.73828 72.0948 7.71861C71.9218 7.5495 71.79 7.36073 71.6996 7.15229C71.6327 7.01071 71.5895 6.86323 71.5698 6.70985C71.5619 6.63513 71.558 6.56041 71.558 6.48569V3.86646C71.558 3.77207 71.5659 3.67769 71.5816 3.5833C71.6091 3.45352 71.6485 3.3257 71.6996 3.19985C71.7979 2.98748 71.9297 2.80068 72.0948 2.63943C72.2561 2.47426 72.4448 2.34644 72.6612 2.25599C72.8735 2.16553 73.0997 2.12031 73.3396 2.12031H73.8646C74.0927 2.12424 74.3149 2.16947 74.5312 2.25599C74.7042 2.32678 74.8596 2.4192 74.9972 2.53325L75.0621 2.59814C75.2234 2.75938 75.3531 2.94619 75.4515 3.15856C75.5144 3.30407 75.5576 3.45352 75.5812 3.6069C75.5891 3.68162 75.593 3.75634 75.593 3.83106V4.17911H74.3896V3.83106C74.3896 3.66589 74.3345 3.53021 74.2244 3.42402L74.2126 3.41222H74.2067C74.1045 3.34537 73.9904 3.30997 73.8646 3.30604H73.3396C73.1744 3.30604 73.0367 3.35913 72.9266 3.46532C72.8165 3.5715 72.7614 3.70522 72.7614 3.86646V6.48569C72.7614 6.62333 72.8027 6.74132 72.8853 6.83964C72.905 6.8593 72.9266 6.877 72.9502 6.89273C73.0525 6.97138 73.1724 7.01071 73.3101 7.01071H73.8292C73.9865 7.00678 74.1182 6.95172 74.2244 6.84554C74.3345 6.73542 74.3896 6.59974 74.3896 6.43849ZM79.8723 2.12031V3.24705H76.6867V2.12031H79.8723ZM79.8723 4.53896V5.6834H77.9196V7.0638H79.8723V8.19054H76.6867V4.53896H79.8723ZM84.765 6.13174C85.0246 6.35984 85.2291 6.62923 85.3785 6.93992C85.5319 7.25848 85.6086 7.59276 85.6086 7.94278V8.19054H84.3875V7.94278C84.3875 7.57703 84.2675 7.27027 84.0276 7.02251C83.9175 6.91239 83.7897 6.82587 83.6442 6.76295C83.4947 6.69609 83.3394 6.66266 83.1781 6.66266H82.482V8.19054H81.2609V5.51233H83.2312C83.3885 5.51233 83.5282 5.49659 83.6501 5.46513C83.7917 5.42974 83.9155 5.35895 84.0217 5.25276C84.2538 5.02073 84.3698 4.73757 84.3698 4.40328C84.3698 4.0454 84.2538 3.75634 84.0217 3.53611C83.9155 3.43779 83.7917 3.36896 83.6501 3.32964C83.5164 3.29031 83.3571 3.26868 83.1722 3.26474H81.2609V2.25009C81.2609 2.21469 81.2707 2.18323 81.2904 2.1557C81.314 2.13211 81.3474 2.12031 81.3907 2.12031H83.1781C83.9018 2.12424 84.474 2.33858 84.8948 2.76332C85.3707 3.23918 85.6086 3.78584 85.6086 4.40328C85.6086 5.0168 85.3707 5.55362 84.8948 6.01375C84.8515 6.05701 84.8083 6.09634 84.765 6.13174ZM59.8058 13.7633C60.2817 14.2392 60.5196 14.7858 60.5196 15.4033C60.5196 16.0168 60.2817 16.5536 59.8058 17.0138C59.385 17.4228 58.8167 17.6273 58.1009 17.6273H57.3871V19.1905H56.1719V16.5123H58.1422C58.2995 16.5123 58.4392 16.4966 58.5611 16.4651C58.7027 16.4297 58.8265 16.3589 58.9327 16.2528C59.1648 16.0207 59.2808 15.7376 59.2808 15.4033C59.2808 15.0454 59.1648 14.7563 58.9327 14.5361C58.8265 14.4378 58.7027 14.369 58.5611 14.3296C58.4274 14.2903 58.2681 14.2687 58.0832 14.2647H56.1719V13.1203H58.0891C58.8128 13.1242 59.385 13.3386 59.8058 13.7633ZM64.718 13.1203V14.247H61.5325V13.1203H64.718ZM64.718 15.539V16.6834H62.7654V18.0638H64.718V19.1905H61.5325V15.539H64.718ZM69.6108 17.1317C69.8704 17.3598 70.0749 17.6292 70.2243 17.9399C70.3777 18.2585 70.4544 18.5928 70.4544 18.9428V19.1905H69.2333V18.9428C69.2333 18.577 69.1133 18.2703 68.8734 18.0225C68.7633 17.9124 68.6355 17.8259 68.49 17.7629C68.3405 17.6961 68.1852 17.6627 68.0239 17.6627H67.3278V19.1905H66.1067V16.5123H68.077C68.2343 16.5123 68.3739 16.4966 68.4959 16.4651C68.6374 16.4297 68.7613 16.3589 68.8675 16.2528C69.0995 16.0207 69.2156 15.7376 69.2156 15.4033C69.2156 15.0454 69.0995 14.7563 68.8675 14.5361C68.7613 14.4378 68.6374 14.369 68.4959 14.3296C68.3621 14.2903 68.2029 14.2687 68.018 14.2647H66.1067V13.2501C66.1067 13.2147 66.1165 13.1832 66.1362 13.1557C66.1598 13.1321 66.1932 13.1203 66.2365 13.1203H68.0239C68.7476 13.1242 69.3198 13.3386 69.7406 13.7633C70.2164 14.2392 70.4544 14.7858 70.4544 15.4033C70.4544 16.0168 70.2164 16.5536 69.7406 17.0138C69.6973 17.057 69.6541 17.0963 69.6108 17.1317ZM75.7241 14.2235C75.8145 14.4437 75.8598 14.6738 75.8598 14.9137V19.1905H74.674V17.6922H73.7774V16.5123H74.674V14.8724C74.674 14.7032 74.617 14.5636 74.503 14.4535C74.3889 14.3434 74.2473 14.2883 74.0782 14.2883H73.3821C73.272 14.2883 73.1599 14.3434 73.0459 14.4535C72.9358 14.5636 72.8807 14.7032 72.8807 14.8724V19.1905H71.6891V14.9137C71.6891 14.6738 71.7363 14.4437 71.8306 14.2235C71.929 14.0032 72.0607 13.8105 72.2259 13.6453C72.3871 13.4802 72.5759 13.3504 72.7922 13.256C72.9967 13.1695 73.215 13.1242 73.447 13.1203H74.0841C74.324 13.1203 74.5521 13.1655 74.7684 13.256C74.9887 13.3504 75.1814 13.4802 75.3465 13.6453C75.5078 13.8105 75.6336 14.0032 75.7241 14.2235ZM80.9011 13.6453C81.0702 13.8066 81.2 13.9953 81.2905 14.2117C81.3849 14.424 81.4321 14.6502 81.4321 14.8901V17.4208C81.4321 17.6646 81.3849 17.8927 81.2905 18.1051C81.2 18.3175 81.0702 18.5062 80.9011 18.6714C80.732 18.8327 80.5334 18.9605 80.3053 19.0549C80.089 19.1414 79.8629 19.1866 79.6269 19.1905H79.096C78.8522 19.1905 78.6182 19.1453 78.394 19.0549C78.1738 18.9605 77.9791 18.8327 77.81 18.6714C77.6369 18.5023 77.5013 18.3116 77.4029 18.0992C77.3085 17.8908 77.2614 17.6646 77.2614 17.4208V14.8901C77.2614 14.6502 77.3105 14.424 77.4088 14.2117C77.5111 13.9953 77.6448 13.8066 77.81 13.6453C77.9791 13.4802 78.1738 13.3523 78.394 13.2619C78.6182 13.1675 78.8522 13.1203 79.096 13.1203H79.621C79.8609 13.1242 80.089 13.1714 80.3053 13.2619C80.5334 13.3523 80.732 13.4802 80.9011 13.6453ZM80.034 14.4358C79.9199 14.3336 79.7803 14.2785 79.6151 14.2706H79.0842C78.9151 14.2706 78.7735 14.3257 78.6595 14.4358C78.5493 14.5459 78.4943 14.6816 78.4943 14.8429V17.4621C78.4943 17.6273 78.5493 17.7629 78.6595 17.8691C78.7735 17.9792 78.9151 18.0343 79.0842 18.0343H79.6033C79.7724 18.0343 79.916 17.9792 80.034 17.8691C80.1519 17.7629 80.2109 17.6273 80.2109 17.4621V14.8429C80.2109 14.6816 80.1519 14.5459 80.034 14.4358ZM85.1698 13.1203H86.2848V19.1905H85.099C85.0872 19.1905 85.0047 19.0175 84.8513 18.6714C84.6979 18.3253 84.5268 17.9301 84.3381 17.4857C84.1454 17.0413 83.9035 16.473 83.6125 15.7808V19.1905H82.5211V13.1203H83.6832C83.695 13.1203 83.7776 13.2914 83.931 13.6335C84.0805 13.9796 84.2515 14.3729 84.4442 14.8134C84.633 15.2538 84.8749 15.8202 85.1698 16.5123V13.1203ZM91.6748 14.2235C91.7652 14.4437 91.8104 14.6738 91.8104 14.9137V19.1905H90.6247V17.6922H89.728V16.5123H90.6247V14.8724C90.6247 14.7032 90.5677 14.5636 90.4536 14.4535C90.3396 14.3434 90.198 14.2883 90.0289 14.2883H89.3328C89.2227 14.2883 89.1106 14.3434 88.9965 14.4535C88.8864 14.5636 88.8314 14.7032 88.8314 14.8724V19.1905H87.6397V14.9137C87.6397 14.6738 87.6869 14.4437 87.7813 14.2235C87.8796 14.0032 88.0114 13.8105 88.1766 13.6453C88.3378 13.4802 88.5266 13.3504 88.7429 13.256C88.9474 13.1695 89.1656 13.1242 89.3977 13.1203H90.0348C90.2747 13.1203 90.5028 13.1655 90.7191 13.256C90.9393 13.3504 91.132 13.4802 91.2972 13.6453C91.4585 13.8105 91.5843 14.0032 91.6748 14.2235ZM94.4818 18.0638H96.3932V19.1846H96.2988C96.2909 19.1886 96.2791 19.1905 96.2634 19.1905H93.4023C93.3669 19.1905 93.3374 19.1768 93.3138 19.1493C93.2863 19.1178 93.2725 19.0883 93.2725 19.0608V13.1203H94.4818V18.0638ZM60.2069 25.2235C60.2974 25.4437 60.3426 25.6738 60.3426 25.9137V30.1905H59.1569V28.6922H58.2602V27.5123H59.1569V25.8724C59.1569 25.7032 59.0999 25.5636 58.9858 25.4535C58.8718 25.3434 58.7302 25.2883 58.5611 25.2883H57.865C57.7549 25.2883 57.6428 25.3434 57.5287 25.4535C57.4186 25.5636 57.3635 25.7032 57.3635 25.8724V30.1905H56.1719V25.9137C56.1719 25.6738 56.2191 25.4437 56.3135 25.2235C56.4118 25.0032 56.5436 24.8105 56.7087 24.6453C56.87 24.4802 57.0588 24.3504 57.2751 24.256C57.4796 24.1695 57.6978 24.1242 57.9299 24.1203H58.567C58.8069 24.1203 59.035 24.1655 59.2513 24.256C59.4715 24.3504 59.6642 24.4802 59.8294 24.6453C59.9906 24.8105 60.1165 25.0032 60.2069 25.2235ZM64.5758 28.4385V28.1789H65.7792V28.4385C65.7792 28.5407 65.7694 28.6391 65.7497 28.7335C65.7301 28.8632 65.6947 28.9891 65.6435 29.111C65.5452 29.3194 65.4135 29.5082 65.2483 29.6773C65.0792 29.8386 64.8885 29.9644 64.6761 30.0549C64.4676 30.1414 64.2474 30.1866 64.0154 30.1905H63.4962C63.2564 30.1905 63.0263 30.1453 62.806 30.0549C62.633 29.9801 62.4777 29.8858 62.34 29.7717C62.3164 29.756 62.2968 29.7383 62.281 29.7186C62.108 29.5495 61.9762 29.3607 61.8858 29.1523C61.8189 29.0107 61.7757 28.8632 61.756 28.7099C61.7481 28.6351 61.7442 28.5604 61.7442 28.4857V25.8665C61.7442 25.7721 61.7521 25.6777 61.7678 25.5833C61.7953 25.4535 61.8347 25.3257 61.8858 25.1999C61.9841 24.9875 62.1158 24.8007 62.281 24.6394C62.4423 24.4743 62.631 24.3464 62.8473 24.256C63.0597 24.1655 63.2858 24.1203 63.5257 24.1203H64.0508C64.2789 24.1242 64.5011 24.1695 64.7174 24.256C64.8904 24.3268 65.0458 24.4192 65.1834 24.5332L65.2483 24.5981C65.4095 24.7594 65.5393 24.9462 65.6376 25.1586C65.7006 25.3041 65.7438 25.4535 65.7674 25.6069C65.7753 25.6816 65.7792 25.7563 65.7792 25.8311V26.1791H64.5758V25.8311C64.5758 25.6659 64.5207 25.5302 64.4106 25.424L64.3988 25.4122H64.3929C64.2907 25.3454 64.1766 25.31 64.0508 25.306H63.5257C63.3606 25.306 63.2229 25.3591 63.1128 25.4653C63.0027 25.5715 62.9476 25.7052 62.9476 25.8665V28.4857C62.9476 28.6233 62.9889 28.7413 63.0715 28.8396C63.0912 28.8593 63.1128 28.877 63.1364 28.8927C63.2387 28.9714 63.3586 29.0107 63.4962 29.0107H64.0154C64.1727 29.0068 64.3044 28.9517 64.4106 28.8455C64.5207 28.7354 64.5758 28.5997 64.5758 28.4385ZM69.7347 28.4385V28.1789H70.9382V28.4385C70.9382 28.5407 70.9283 28.6391 70.9087 28.7335C70.889 28.8632 70.8536 28.9891 70.8025 29.111C70.7042 29.3194 70.5724 29.5082 70.4072 29.6773C70.2381 29.8386 70.0474 29.9644 69.835 30.0549C69.6266 30.1414 69.4064 30.1866 69.1743 30.1905H68.6552C68.4153 30.1905 68.1852 30.1453 67.965 30.0549C67.7919 29.9801 67.6366 29.8858 67.499 29.7717C67.4754 29.756 67.4557 29.7383 67.44 29.7186C67.2669 29.5495 67.1352 29.3607 67.0447 29.1523C66.9779 29.0107 66.9346 28.8632 66.9149 28.7099C66.9071 28.6351 66.9031 28.5604 66.9031 28.4857V25.8665C66.9031 25.7721 66.911 25.6777 66.9267 25.5833C66.9543 25.4535 66.9936 25.3257 67.0447 25.1999C67.143 24.9875 67.2748 24.8007 67.44 24.6394C67.6012 24.4743 67.79 24.3464 68.0063 24.256C68.2187 24.1655 68.4448 24.1203 68.6847 24.1203H69.2097C69.4378 24.1242 69.66 24.1695 69.8763 24.256C70.0494 24.3268 70.2047 24.4192 70.3424 24.5332L70.4072 24.5981C70.5685 24.7594 70.6983 24.9462 70.7966 25.1586C70.8595 25.3041 70.9028 25.4535 70.9264 25.6069C70.9342 25.6816 70.9382 25.7563 70.9382 25.8311V26.1791H69.7347V25.8311C69.7347 25.6659 69.6797 25.5302 69.5696 25.424L69.5578 25.4122H69.5519C69.4496 25.3454 69.3356 25.31 69.2097 25.306H68.6847C68.5195 25.306 68.3819 25.3591 68.2717 25.4653C68.1616 25.5715 68.1066 25.7052 68.1066 25.8665V28.4857C68.1066 28.6233 68.1479 28.7413 68.2305 28.8396C68.2501 28.8593 68.2717 28.877 68.2953 28.8927C68.3976 28.9714 68.5175 29.0107 68.6552 29.0107H69.1743C69.3316 29.0068 69.4634 28.9517 69.5696 28.8455C69.6797 28.7354 69.7347 28.5997 69.7347 28.4385ZM75.7019 24.6453C75.871 24.8066 76.0008 24.9953 76.0912 25.2117C76.1856 25.424 76.2328 25.6502 76.2328 25.8901V28.4208C76.2328 28.6646 76.1856 28.8927 76.0912 29.1051C76.0008 29.3175 75.871 29.5062 75.7019 29.6714C75.5328 29.8327 75.3342 29.9605 75.1061 30.0549C74.8898 30.1414 74.6636 30.1866 74.4276 30.1905H73.8967C73.6529 30.1905 73.4189 30.1453 73.1947 30.0549C72.9745 29.9605 72.7798 29.8327 72.6107 29.6714C72.4377 29.5023 72.302 29.3116 72.2037 29.0992C72.1093 28.8908 72.0621 28.6646 72.0621 28.4208V25.8901C72.0621 25.6502 72.1112 25.424 72.2096 25.2117C72.3118 24.9953 72.4455 24.8066 72.6107 24.6453C72.7798 24.4802 72.9745 24.3523 73.1947 24.2619C73.4189 24.1675 73.6529 24.1203 73.8967 24.1203H74.4218C74.6616 24.1242 74.8898 24.1714 75.1061 24.2619C75.3342 24.3523 75.5328 24.4802 75.7019 24.6453ZM74.8347 25.4358C74.7206 25.3336 74.581 25.2785 74.4159 25.2706H73.8849C73.7158 25.2706 73.5742 25.3257 73.4602 25.4358C73.3501 25.5459 73.295 25.6816 73.295 25.8429V28.4621C73.295 28.6273 73.3501 28.7629 73.4602 28.8691C73.5742 28.9792 73.7158 29.0343 73.8849 29.0343H74.4041C74.5732 29.0343 74.7167 28.9792 74.8347 28.8691C74.9527 28.7629 75.0117 28.6273 75.0117 28.4621V25.8429C75.0117 25.6816 74.9527 25.5459 74.8347 25.4358ZM80.3218 28.4444V24.1203H81.543V28.4031C81.543 28.6469 81.4958 28.875 81.4014 29.0874C81.3109 29.3076 81.1811 29.4984 81.012 29.6596C80.8429 29.8287 80.6443 29.9585 80.4162 30.049C80.1999 30.1394 79.9738 30.1866 79.7378 30.1905H79.2069C78.9631 30.1905 78.7291 30.1434 78.5049 30.049C78.2847 29.9585 78.09 29.8287 77.9209 29.6596C77.7478 29.4905 77.6122 29.2978 77.5138 29.0815C77.4194 28.8731 77.3723 28.6469 77.3723 28.4031V24.1203H78.6052V28.4444C78.6052 28.6096 78.6602 28.7472 78.7704 28.8573C78.8844 28.9675 79.026 29.0225 79.1951 29.0225H79.7142C79.8833 29.0186 80.0269 28.9635 80.1449 28.8573C80.2628 28.7472 80.3218 28.6096 80.3218 28.4444ZM85.6638 24.1203H86.7788V30.1905H85.593C85.5812 30.1905 85.4987 30.0175 85.3453 29.6714C85.1919 29.3253 85.0208 28.9301 84.8321 28.4857C84.6393 28.0413 84.3975 27.473 84.1065 26.7808V30.1905H83.0151V24.1203H84.1772C84.189 24.1203 84.2716 24.2914 84.425 24.6335C84.5745 24.9796 84.7455 25.3729 84.9382 25.8134C85.127 26.2538 85.3689 26.8202 85.6638 27.5123V24.1203ZM87.9321 24.1203H91.8491V25.247H90.4805V30.1905H89.2771V25.247H87.9321V24.1203Z" fill="white"/>
</svg>
